<svg xmlns="http://www.w3.org/2000/svg" width="1200" height="700" viewBox="0 0 1200 700">
<rect width="100%" height="100%" fill="white"/>
<style>text{font-family:Arial,Helvetica,sans-serif;fill:#111827}.title{font-size:26px;font-weight:700}.label{font-size:17px}.small{font-size:14px}.axis{stroke:#374151;stroke-width:1.5}.grid{stroke:#D1D5DB;stroke-width:1}.zero{stroke:#111827;stroke-width:2}</style>
<text class="title" x="600.0" y="38" text-anchor="middle">Validation-to-test shift for the locked v3.2 model</text>
<line class="grid" x1="310.0" y1="100" x2="310.0" y2="610"/>
<text class="small" x="310.0" y="640" text-anchor="middle">-4</text>
<line class="grid" x1="411.2" y1="100" x2="411.2" y2="610"/>
<text class="small" x="411.2" y="640" text-anchor="middle">-2</text>
<line class="grid" x1="512.5" y1="100" x2="512.5" y2="610"/>
<text class="small" x="512.5" y="640" text-anchor="middle">0</text>
<line class="grid" x1="613.8" y1="100" x2="613.8" y2="610"/>
<text class="small" x="613.8" y="640" text-anchor="middle">2</text>
<line class="grid" x1="715.0" y1="100" x2="715.0" y2="610"/>
<text class="small" x="715.0" y="640" text-anchor="middle">4</text>
<line class="grid" x1="816.2" y1="100" x2="816.2" y2="610"/>
<text class="small" x="816.2" y="640" text-anchor="middle">6</text>
<line class="grid" x1="917.5" y1="100" x2="917.5" y2="610"/>
<text class="small" x="917.5" y="640" text-anchor="middle">8</text>
<line class="grid" x1="1018.8" y1="100" x2="1018.8" y2="610"/>
<text class="small" x="1018.8" y="640" text-anchor="middle">10</text>
<line class="grid" x1="1120.0" y1="100" x2="1120.0" y2="610"/>
<text class="small" x="1120.0" y="640" text-anchor="middle">12</text>
<line class="zero" x1="512.5" y1="100" x2="512.5" y2="610"/>
<rect x="416.1" y="131.9" width="96.4" height="63.8" fill="#2563EB"/>
<text class="label" x="292" y="177.8" text-anchor="end">Full-sphere ERB</text>
<text class="label" x="408.1" y="177.8" text-anchor="end">-1.90%</text>
<rect x="447.2" y="259.4" width="65.3" height="63.8" fill="#2563EB"/>
<text class="label" x="292" y="305.3" text-anchor="end">Contralateral ERB</text>
<text class="label" x="439.2" y="305.3" text-anchor="end">-1.29%</text>
<rect x="476.6" y="386.9" width="35.9" height="63.8" fill="#2563EB"/>
<text class="label" x="292" y="432.8" text-anchor="end">Contralateral HF</text>
<text class="label" x="468.6" y="432.8" text-anchor="end">-0.71%</text>
<rect x="512.5" y="514.4" width="502.1" height="63.8" fill="#F59E0B"/>
<text class="label" x="292" y="560.3" text-anchor="end">Horizontal ILD</text>
<text class="label" x="1022.6" y="560.3" text-anchor="start">+9.92%</text>
<text class="label" x="715.0" y="680" text-anchor="middle">Relative error change from validation to test (%)</text>
<text class="small" x="600" y="72" text-anchor="middle">Negative is lower error on test; positive is higher error on test.</text>
</svg>